<svg width="41" height="36" viewBox="0 0 41 36" fill="none" xmlns="http://www.w3.org/2000/svg">
<g clip-path="url(#clip0_1755_14197)">
<path d="M40.85 35.33H1.84998L2.51996 34.73H29.32L4.01996 33.38L4.64996 32.81L29.11 34.11L5.92999 31.67L6.52997 31.13L29.31 33.53L7.60999 30.09L8.17999 29.58L29.61 32.97L9.32996 28.62L9.88 28.13L29.57 32.35L10.82 27.28L11.36 26.8L29.6 31.74L12.2 26.04L12.72 25.58L40.53 34.68L40.85 35.33ZM26.77 29.5L23 11.59L27.85 29.85L28.53 30.07L23.53 11.3L29.72 30.47L30.43 30.7L24.05 10.95L31.79 31.14L32.52 31.38L24.69 10.94L34.01 31.87L34.77 32.13L25.3 10.83L36.41 32.66L37.21 32.92L25.73 10.34L39.13 33.55L39.98 33.83L20.61 0.25L20.47 0L20.09 0.649994L26.09 29.28L26.77 29.5ZM22.39 15.08L8.76001 27.29L22.15 13.96L22.01 13.26L8.23999 26.97L21.75 11.97L21.59 11.25L7.67999 26.64L21.3 9.87L21.14 9.10999L7.34998 26.11L20.82 7.57999L20.61 6.87L6.90997 25.72L20.26 5.19L20.08 4.35999L6.26996 25.6L19.67 2.38998L19.48 1.51001L0.0999756 35.08C0.0999756 35.08 0.0199609 35.22 -0.0400391 35.33H0.700012L22.49 15.8L22.39 15.08Z" fill="url(#paint0_linear_1755_14197)"/>
</g>
<defs>
<linearGradient id="paint0_linear_1755_14197" x1="-3.90463e-05" y1="17.66" x2="40.85" y2="17.66" gradientUnits="userSpaceOnUse">
<stop stop-color="#FBD74C"/>
<stop offset="0.33" stop-color="#F7941E"/>
<stop offset="0.66" stop-color="#E64F47"/>
<stop offset="1" stop-color="#3748EE"/>
</linearGradient>
<clipPath id="clip0_1755_14197">
<rect width="40.85" height="35.33" fill="white"/>
</clipPath>
</defs>
</svg>
